<svg xmlns="http://www.w3.org/2000/svg" xmlns:xlink="http://www.w3.org/1999/xlink" preserveAspectRatio="xMidYMid" width="20" height="10" viewBox="0 0 20 10">
  <defs>
    <style>
      .cls-1 {
        fill: #000;
        fill-rule: evenodd;
      }
    </style>
  </defs>
  <path d="M15.000,10.000 C12.239,10.000 10.000,7.761 10.000,5.000 C10.000,4.309 10.141,3.650 10.394,3.051 C10.394,3.051 12.039,6.049 12.000,6.000 C12.636,6.816 13.799,7.935 15.000,8.000 C16.654,8.089 18.000,6.657 18.000,5.000 C18.000,3.343 16.657,2.000 15.000,2.000 C14.215,2.000 13.507,2.308 12.973,2.801 L11.558,1.387 C12.456,0.532 13.663,-0.000 15.000,-0.000 C17.761,-0.000 20.000,2.239 20.000,5.000 C20.000,7.761 17.761,10.000 15.000,10.000 ZM8.000,4.000 C8.010,3.372 6.657,2.000 5.000,2.000 C3.343,2.000 2.000,3.343 2.000,5.000 C2.000,6.657 3.343,8.000 5.000,8.000 C5.850,8.000 6.614,7.643 7.160,7.074 L8.574,8.489 C7.666,9.419 6.403,10.000 5.000,10.000 C2.239,10.000 0.000,7.761 0.000,5.000 C0.000,2.239 2.239,-0.000 5.000,-0.000 C7.761,-0.000 10.000,2.239 10.000,5.000 C10.000,5.619 9.873,6.206 9.667,6.753 C9.667,6.753 8.002,3.902 8.000,4.000 Z" class="cls-1"/>
</svg>
