<svg xmlns="http://www.w3.org/2000/svg" xmlns:xlink="http://www.w3.org/1999/xlink" preserveAspectRatio="xMidYMid" width="25" height="32" viewBox="0 0 25 32">
  <defs>
    <style>
      .cls-1 {
        fill: #294165;
        fill-rule: evenodd;
      }
    </style>
  </defs>
  <path d="M12.500,32.000 C9.633,31.546 0.804,24.265 0.000,15.385 L0.000,6.154 L12.500,0.000 L25.000,6.154 L25.000,15.385 C23.957,24.328 14.602,32.333 12.500,32.000 ZM23.809,6.769 L12.538,1.231 L1.190,6.769 L1.190,15.385 C1.190,21.842 10.086,30.798 12.500,30.769 C14.891,30.740 23.809,21.842 23.809,15.385 L23.809,6.769 ZM15.262,20.923 L9.738,20.923 C8.634,20.923 7.738,20.028 7.738,18.923 L7.738,15.539 C7.738,14.434 8.634,13.539 9.738,13.539 L9.524,13.539 L9.524,12.822 C9.524,11.178 10.856,9.846 12.500,9.846 C14.144,9.846 15.476,11.178 15.476,12.822 L15.476,13.539 L15.262,13.539 C16.366,13.539 17.262,14.434 17.262,15.539 L17.262,18.923 C17.262,20.028 16.366,20.923 15.262,20.923 ZM14.286,12.863 C14.286,11.877 13.486,11.077 12.500,11.077 C11.514,11.077 10.714,11.877 10.714,12.863 L10.714,13.539 L14.286,13.539 L14.286,12.863 ZM16.071,15.769 C16.071,15.217 15.624,14.769 15.071,14.769 L9.929,14.769 C9.376,14.769 8.929,15.217 8.929,15.769 L8.929,18.692 C8.929,19.244 9.376,19.692 9.929,19.692 L15.071,19.692 C15.624,19.692 16.071,19.244 16.071,18.692 L16.071,15.769 Z" class="cls-1"/>
</svg>
