<svg xmlns="http://www.w3.org/2000/svg" xmlns:xlink="http://www.w3.org/1999/xlink" preserveAspectRatio="xMidYMid" width="32" height="32" viewBox="0 0 32 32">
  <defs>
    <style>
      .cls-1 {
        fill: #294165;
        fill-rule: evenodd;
      }
    </style>
  </defs>
  <path d="M16.000,32.000 C7.178,32.000 0.000,24.822 0.000,16.000 C0.000,7.178 7.178,0.000 16.000,0.000 C16.328,0.000 16.593,0.265 16.593,0.593 C16.593,0.920 16.328,1.185 16.000,1.185 C7.831,1.185 1.185,7.831 1.185,16.000 C1.185,20.469 3.182,24.472 6.321,27.191 L6.321,26.930 C6.321,24.992 8.004,23.355 9.994,23.355 L11.616,23.355 L12.651,21.765 C11.300,20.984 10.424,19.620 10.158,17.757 C9.412,17.463 8.893,16.730 8.893,15.897 L8.893,15.503 C8.893,14.694 9.384,13.978 10.095,13.668 L10.095,12.606 C10.095,10.225 12.029,8.288 14.405,8.288 L20.789,8.288 C21.115,8.288 21.379,8.552 21.379,8.878 L21.379,13.698 C22.058,14.024 22.515,14.720 22.515,15.503 L22.515,15.897 C22.515,16.707 22.033,17.419 21.320,17.730 C21.074,19.515 20.258,20.836 19.009,21.637 L20.127,23.355 L22.141,23.355 C24.092,23.355 25.679,24.929 25.679,26.865 L25.679,27.191 C28.818,24.472 30.815,20.469 30.815,16.000 C30.815,15.672 31.080,15.407 31.407,15.407 C31.735,15.407 32.000,15.672 32.000,16.000 C32.000,24.822 24.822,32.000 16.000,32.000 ZM20.186,17.241 C20.205,16.972 20.405,16.749 20.670,16.702 C21.055,16.632 21.335,16.293 21.335,15.897 L21.335,15.503 C21.335,15.112 21.058,14.774 20.677,14.700 C20.400,14.646 20.200,14.403 20.200,14.120 L20.200,9.468 L14.405,9.468 C12.679,9.468 11.275,10.876 11.275,12.606 L11.275,14.109 C11.275,14.403 11.059,14.652 10.768,14.694 C10.371,14.749 10.072,15.098 10.072,15.503 L10.072,15.897 C10.072,16.306 10.376,16.654 10.778,16.708 C11.055,16.745 11.268,16.971 11.288,17.250 C11.482,19.875 13.103,21.339 15.737,21.339 C18.377,21.339 19.999,19.871 20.186,17.241 ZM24.494,28.005 L24.494,26.865 C24.494,25.583 23.438,24.540 22.141,24.540 L19.757,24.540 C19.531,24.540 19.324,24.411 19.224,24.208 L17.945,22.165 C17.287,22.395 16.551,22.520 15.737,22.520 C15.014,22.520 14.355,22.417 13.754,22.235 L12.519,24.208 C12.419,24.411 12.212,24.540 11.986,24.540 L9.994,24.540 C8.669,24.540 7.506,25.657 7.506,26.930 L7.506,28.070 C7.506,28.086 7.499,28.098 7.498,28.113 C9.907,29.809 12.836,30.815 16.000,30.815 C19.169,30.815 22.102,29.806 24.514,28.104 C24.508,28.071 24.494,28.040 24.494,28.005 ZM29.611,10.671 L24.312,10.671 C23.974,10.671 23.701,10.397 23.701,10.058 L23.701,5.926 C23.701,5.587 23.974,5.313 24.312,5.313 L24.879,5.313 L24.879,4.747 C24.879,3.432 25.946,2.363 27.258,2.363 C27.596,2.363 27.870,2.637 27.870,2.976 C27.870,3.315 27.596,3.589 27.258,3.589 C26.621,3.589 26.102,4.109 26.102,4.747 L26.102,5.313 L29.611,5.313 C29.949,5.313 30.222,5.587 30.222,5.926 L30.222,10.058 C30.222,10.397 29.949,10.671 29.611,10.671 ZM28.999,6.539 L24.924,6.539 L24.924,9.445 L28.999,9.445 L28.999,6.539 Z" class="cls-1"/>
</svg>
