<svg xmlns="http://www.w3.org/2000/svg" xmlns:xlink="http://www.w3.org/1999/xlink" preserveAspectRatio="xMidYMid" width="32" height="26" viewBox="0 0 32 26">
  <defs>
    <style>
      .cls-1 {
        fill: #294165;
        fill-rule: evenodd;
      }
    </style>
  </defs>
  <path d="M30.704,19.158 L5.364,25.947 C4.433,26.197 3.472,25.642 3.223,24.711 L0.052,12.879 C-0.197,11.947 0.357,10.987 1.289,10.737 L26.628,3.948 C27.560,3.698 28.520,4.253 28.770,5.184 L31.940,17.016 C32.190,17.947 31.635,18.908 30.704,19.158 ZM27.644,5.485 C27.561,5.176 27.241,4.990 26.930,5.073 L1.590,11.864 C1.280,11.947 1.095,12.267 1.178,12.577 L4.349,24.409 C4.432,24.719 4.752,24.904 5.062,24.821 L30.402,18.031 C30.713,17.948 30.897,17.628 30.814,17.318 L27.644,5.485 ZM23.119,16.181 L24.028,10.494 L20.912,11.329 L20.663,10.402 L24.995,9.241 L25.190,9.970 L24.281,15.869 L23.119,16.181 ZM18.430,17.630 L18.858,10.692 L19.561,10.504 L19.132,17.442 L18.430,17.630 ZM16.406,17.980 L15.352,18.262 L14.988,16.902 L12.124,17.669 L11.897,16.823 L13.346,12.362 L14.796,11.973 L15.793,15.692 L16.594,15.478 L16.843,16.405 L16.041,16.620 L16.406,17.980 ZM13.996,13.201 L12.911,16.464 L14.739,15.975 L13.996,13.201 ZM7.218,19.544 C9.077,17.154 9.788,16.133 9.554,15.260 C9.385,14.630 8.761,14.498 8.212,14.645 C7.509,14.833 7.053,15.255 6.781,15.791 L5.986,15.270 C6.343,14.480 7.105,13.938 7.952,13.711 C9.113,13.399 10.296,13.777 10.617,14.975 C10.916,16.092 10.164,17.355 8.886,19.000 L11.543,18.289 L11.791,19.216 L7.442,20.381 L7.218,19.544 ZM22.226,4.599 L13.977,2.389 C13.774,2.717 13.454,2.973 13.053,3.080 C12.678,3.180 12.302,3.130 11.977,2.975 L6.006,8.946 L3.754,9.549 L11.188,2.115 C11.170,2.067 11.147,2.022 11.134,1.972 C10.910,1.135 11.406,0.276 12.242,0.052 C13.078,-0.172 13.937,0.324 14.161,1.161 C14.168,1.185 14.168,1.210 14.174,1.235 L24.478,3.996 L22.226,4.599 Z" class="cls-1"/>
</svg>
