<svg xmlns="http://www.w3.org/2000/svg" preserveAspectRatio="xMidYMid" width="20" height="10" viewBox="0 0 20 10">
    <defs>
        <style>
            .cls-1{fill:#000;fill-rule:evenodd}
        </style>
    </defs>
    <path d="M15 10a5 5 0 0 1-4.606-6.949S12.039 6.049 12 6c.636.816 1.799 1.935 3 2 1.654.089 3-1.343 3-3a3 3 0 0 0-3-3c-.785 0-1.493.308-2.027.801l-1.415-1.414A4.974 4.974 0 0 1 15 0a5 5 0 0 1 0 10zM8 4c.01-.628-1.343-2-3-2a3 3 0 1 0 0 6c.85 0 1.614-.357 2.16-.926l1.414 1.415A4.978 4.978 0 0 1 5 10a5 5 0 1 1 5-5c0 .619-.127 1.206-.333 1.753 0 0-1.665-2.851-1.667-2.753z" class="cls-1"/>
</svg>
