<svg xmlns="http://www.w3.org/2000/svg" preserveAspectRatio="xMidYMid" width="25" height="32" viewBox="0 0 25 32">
    <defs>
        <style>
            .cls-1{fill:#294165;fill-rule:evenodd}
        </style>
    </defs>
    <path d="M12.5 32C9.633 31.546.804 24.265 0 15.385V6.154L12.5 0 25 6.154v9.231C23.957 24.328 14.602 32.333 12.5 32zM23.809 6.769L12.538 1.231 1.19 6.769v8.616c0 6.457 8.896 15.413 11.31 15.384 2.391-.029 11.309-8.927 11.309-15.384V6.769zm-8.547 14.154H9.738a2 2 0 0 1-2-2v-3.384a2 2 0 0 1 2-2h-.214v-.717a2.975 2.975 0 1 1 5.952 0v.717h-.214a2 2 0 0 1 2 2v3.384a2 2 0 0 1-2 2zm-.976-8.06a1.786 1.786 0 0 0-3.572 0v.676h3.572v-.676zm1.785 2.906a1 1 0 0 0-1-1H9.929a1 1 0 0 0-1 1v2.923a1 1 0 0 0 1 1h5.142a1 1 0 0 0 1-1v-2.923z" class="cls-1"/>
</svg>
