<svg xmlns="http://www.w3.org/2000/svg" preserveAspectRatio="xMidYMid" width="32" height="26" viewBox="0 0 32 26">
    <defs>
        <style>
            .cls-1{fill:#294165;fill-rule:evenodd}
        </style>
    </defs>
    <path d="M30.704 19.158l-25.34 6.789a1.75 1.75 0 0 1-2.141-1.236L.052 12.879a1.751 1.751 0 0 1 1.237-2.142l25.339-6.789a1.75 1.75 0 0 1 2.142 1.236l3.17 11.832a1.751 1.751 0 0 1-1.236 2.142zm-3.06-13.673a.585.585 0 0 0-.714-.412L1.59 11.864a.583.583 0 0 0-.412.713l3.171 11.832c.083.31.403.495.713.412l25.34-6.79a.582.582 0 0 0 .412-.713l-3.17-11.833zm-4.525 10.696l.909-5.687-3.116.835-.249-.927 4.332-1.161.195.729-.909 5.899-1.162.312zM18.43 17.63l.428-6.938.703-.188-.429 6.938-.702.188zm-2.024.35l-1.054.282-.364-1.36-2.864.767-.227-.846 1.449-4.461 1.45-.389.997 3.719.801-.214.249.927-.802.215.365 1.36zm-2.41-4.779l-1.085 3.263 1.828-.489-.743-2.774zm-6.778 6.343c1.859-2.39 2.57-3.411 2.336-4.284-.169-.63-.793-.762-1.342-.615-.703.188-1.159.61-1.431 1.146l-.795-.521c.357-.79 1.119-1.332 1.966-1.559 1.161-.312 2.344.066 2.665 1.264.299 1.117-.453 2.38-1.731 4.025l2.657-.711.248.927-4.349 1.165-.224-.837zM22.226 4.599l-8.249-2.21a1.556 1.556 0 0 1-.924.691c-.375.1-.751.05-1.076-.105L6.006 8.946l-2.252.603 7.434-7.434c-.018-.048-.041-.093-.054-.143a1.567 1.567 0 1 1 3.027-.811c.007.024.007.049.013.074l10.304 2.761-2.252.603z" class="cls-1"/>
</svg>
