<svg xmlns="http://www.w3.org/2000/svg" preserveAspectRatio="xMidYMid" width="32" height="32" viewBox="0 0 32 32">
    <defs>
        <style>
            .cls-1{fill:#294165;fill-rule:evenodd}
        </style>
    </defs>
    <path d="M16 32C7.178 32 0 24.822 0 16S7.178 0 16 0a.592.592 0 1 1 0 1.185C7.831 1.185 1.185 7.831 1.185 16c0 4.469 1.997 8.472 5.136 11.191v-.261c0-1.938 1.683-3.575 3.673-3.575h1.622l1.035-1.59c-1.351-.781-2.227-2.145-2.493-4.008a2.006 2.006 0 0 1-1.265-1.86v-.394a2.01 2.01 0 0 1 1.202-1.835v-1.062a4.32 4.32 0 0 1 4.31-4.318h6.384a.59.59 0 0 1 .59.59v4.82a2.007 2.007 0 0 1 1.136 1.805v.394c0 .81-.482 1.522-1.195 1.833-.246 1.785-1.062 3.106-2.311 3.907l1.118 1.718h2.014c1.951 0 3.538 1.574 3.538 3.51v.326c3.139-2.719 5.136-6.722 5.136-11.191A.592.592 0 1 1 32 16c0 8.822-7.178 16-16 16zm4.186-14.759a.59.59 0 0 1 .484-.539.815.815 0 0 0 .665-.805v-.394a.818.818 0 0 0-.658-.803.59.59 0 0 1-.477-.58V9.468h-5.795a3.138 3.138 0 0 0-3.13 3.138v1.503a.591.591 0 0 1-.507.585.817.817 0 0 0-.696.809v.394a.82.82 0 0 0 .706.811.59.59 0 0 1 .51.542c.194 2.625 1.815 4.089 4.449 4.089 2.64 0 4.262-1.468 4.449-4.098zm4.308 10.764v-1.14c0-1.282-1.056-2.325-2.353-2.325h-2.384a.595.595 0 0 1-.533-.332l-1.279-2.043a6.657 6.657 0 0 1-2.208.355 6.802 6.802 0 0 1-1.983-.285l-1.235 1.973a.595.595 0 0 1-.533.332H9.994c-1.325 0-2.488 1.117-2.488 2.39v1.14c0 .016-.007.028-.008.043a14.72 14.72 0 0 0 17.016-.009c-.006-.033-.02-.064-.02-.099zm5.117-17.334h-5.299a.611.611 0 0 1-.611-.613V5.926c0-.339.273-.613.611-.613h.567v-.566a2.384 2.384 0 0 1 2.379-2.384.612.612 0 0 1 0 1.226c-.637 0-1.156.52-1.156 1.158v.566h3.509c.338 0 .611.274.611.613v4.132a.611.611 0 0 1-.611.613zm-.612-4.132h-4.075v2.906h4.075V6.539z" class="cls-1"/>
</svg>
